<svg xmlns="http://www.w3.org/2000/svg" version="1.1" xmlns:xlink="http://www.w3.org/1999/xlink" xmlns:svgjs="http://svgjs.com/svgjs" width="1440" height="560" preserveAspectRatio="none" viewBox="0 0 1440 560"><g mask="url(&quot;#SvgjsMask1238&quot;)" fill="none"><rect width="1440" height="560" x="0" y="0" fill="rgba(0, 150, 255, 1)"></rect><path d="M140 78.54C123.1 78.54 108.89 111.65 108.89 140C108.89 158.33 123.63 171.9 140 171.9C158.28 171.9 178.18 159.02 178.18 140C178.18 112.34 157.75 78.54 140 78.54" stroke="rgba(51, 121, 194, 1)" stroke-width="2"></path><path d="M420 95.79C396.88 95.79 385.93 112.93 381.82 140C371.93 205.04 376.93 214.92 392 280C396.02 297.37 405.23 304.89 420 304.89C437.3 304.89 446.79 298.94 456.13 280C487.44 216.5 512.38 196.54 501.29 140C494.31 104.43 456.62 95.79 420 95.79" stroke="rgba(51, 121, 194, 1)" stroke-width="2"></path><path d="M531.43 0C557.77 11.45 540.72 60.87 560 60.87C584.17 60.87 582.77 15.46 618.33 0C652.77 -14.98 659.16 0 700 0C770 0 770 0 840 0C910 0 910 0 980 0C1050 0 1050 0 1120 0C1190 0 1190 0 1260 0C1330 0 1330 0 1400 0C1470 0 1505 -35 1540 0C1575 35 1540 70 1540 140C1540 210 1540 210 1540 280C1540 350 1540 350 1540 420C1540 490 1575 525 1540 560C1505 595 1470 560 1400 560C1330 560 1330 560 1260 560C1190 560 1190 560 1120 560C1050 560 1050 560 980 560C910 560 910 560 840 560C770 560 770 560 700 560C630 560 630 560 560 560C490 560 490 560 420 560C350 560 350 560 280 560C268.34 560 264.28 568.19 256.67 560C199.19 498.19 204.13 489.18 149.82 420C145.79 414.87 146.39 411.75 140 411.38C71.48 407.44 36.11 445.27 0 411.38C-33.89 379.58 0 345.69 0 280C0 210 0 210 0 140C0 70 -35 35 0 0C35 -35 70 0 140 0C210 0 210 0 280 0C350 0 350 0 420 0C475.71 0 487.77 -18.98 531.43 0" stroke="rgba(51, 121, 194, 1)" stroke-width="2"></path><path d="M1260 98.33C1219.59 98.33 1214.43 112.8 1178.6 140C1144.43 165.95 1145.62 169.62 1120 204.62C1094.38 239.62 1076.12 244.45 1076.12 280C1076.12 307.06 1091 327.38 1120 329.83C1182.94 335.16 1189.96 312.51 1260 295.56C1292.9 287.6 1313.5 305.31 1325.88 280C1351.55 227.53 1356.45 196.14 1336.09 140C1323.51 105.3 1298.34 98.33 1260 98.33" stroke="rgba(51, 121, 194, 1)" stroke-width="2"></path><path d="M560 383.87C540.48 385.76 535.11 403.07 535.11 420C535.11 433.58 543.46 443.29 560 444.89C625.91 451.29 631 445.29 700 436C723.4 432.85 744.8 428 744.8 420C744.8 412 723.26 408.55 700 404C630.86 390.48 622.93 377.76 560 383.87" stroke="rgba(51, 121, 194, 1)" stroke-width="2"></path><path d="M1400 385C1394.75 385 1393.73 402.9 1393.73 420C1393.73 427.18 1395.42 433.55 1400 433.55C1406.33 433.55 1415.56 428.5 1415.56 420C1415.56 404.22 1405.66 385 1400 385" stroke="rgba(51, 121, 194, 1)" stroke-width="2"></path><path d="M0 429.03C37.63 429.03 128.89 521.51 128.89 560C128.89 587 31.96 592.48 0 560C-32.48 527 -26.82 429.03 0 429.03" stroke="rgba(51, 121, 194, 1)" stroke-width="2"></path><path d="M132 0C149.73 37.8 63.31 75.93 65.68 140C67.31 184.03 100.9 216.2 140 216.2C183.66 216.2 224.39 187.37 231.21 140C239.95 79.27 156.88 40.82 171.11 0C181.28 -29.18 225.56 0 280 0C350 0 350 0 420 0C440 0 460 -7.42 460 0C460 9.78 438 15.19 420 34.39C372.39 85.19 346.61 78.99 328.79 140C310.74 201.8 321.09 219.32 348.25 280C366.7 321.21 385.15 310.81 420 343.78C459.13 380.81 458.11 381.89 496.22 420C528.11 451.89 520.08 470.85 560 483.78C621.97 503.85 630.26 489.76 700 486C770.26 482.22 769.96 469.05 840 468.7C909.96 468.36 920.79 500.27 980 484.62C1012.9 475.92 993.58 440.89 1024.21 420C1063.58 393.15 1072.1 404.56 1120 389.15C1189.99 366.64 1196.97 335.39 1260 344.17C1307.71 350.82 1310.4 375.08 1341.49 420C1380.4 476.22 1357.53 545.68 1400 546.45C1456.78 547.48 1499.59 419.68 1540 423.59C1569.59 426.45 1574.55 526.34 1540 560C1504.55 594.55 1470 560 1400 560C1330 560 1330 560 1260 560C1190 560 1190 560 1120 560C1050 560 1050 560 980 560C910 560 910 560 840 560C770 560 770 560 700 560C630 560 630 560 560 560C503.77 560 499.53 570.23 447.54 560C429.53 556.46 437.75 539.31 420 532.46C353.98 507 341.24 528.37 280 495.38C236.85 472.14 247.53 455.74 211.23 420C177.53 386.82 182.62 370.14 140 357.54C77.01 338.91 45.05 382.49 0 357.54C-24.95 343.72 0 318.77 0 280C0 210 0 210 0 140C0 70 -33.97 36.03 0 0C32.03 -33.97 116.89 -32.2 132 0" stroke="rgba(51, 121, 194, 1)" stroke-width="2"></path><path d="M727.45 140C783.48 81.2 783.63 81.34 840 22.86C851.11 11.34 847.42 2.45 862.4 0C917.42 -8.98 921.2 0 980 0C1050 0 1050 0 1120 0C1190 0 1190 0 1260 0C1330 0 1400 -13.63 1400 0C1400 14.7 1330.05 28.46 1260 56.67C1190.05 84.85 1185.7 78.94 1120 112.78C1104.81 120.6 1106.88 124.93 1098.22 140C1058.82 208.54 1057.84 208.51 1023.88 280C998.73 332.95 1021.88 362 980 388.89C929.94 421.02 908.42 406.57 840 398.04C768.42 389.12 771.03 371.92 700 354C631.03 336.61 623.72 352.58 560 327.42C530.01 315.58 512.58 307.25 512.58 280C512.58 238.99 521 213.84 560 190.91C614.71 158.74 634.9 189.58 700 169.79C718.63 164.13 713.48 154.66 727.45 140" stroke="rgba(51, 121, 194, 1)" stroke-width="2"></path><path d="M1540 107.69C1496.51 107.69 1400 30.04 1400 0C1400 -23.81 1500.43 -30.43 1540 0C1570.43 23.41 1566.51 107.69 1540 107.69" stroke="rgba(51, 121, 194, 1)" stroke-width="2"></path><path d="M1440 280C1440 223.24 1511.14 172.31 1540 172.31C1561.14 172.31 1540 226.15 1540 280C1540 348.29 1562.33 416.59 1540 416.59C1512.33 416.59 1440 345.38 1440 280" stroke="rgba(51, 121, 194, 1)" stroke-width="2"></path><path d="M0 485.48C21.41 485.48 73.33 538.1 73.33 560C73.33 575.36 18.18 578.48 0 560C-18.48 541.22 -15.26 485.48 0 485.48" stroke="rgba(51, 121, 194, 1)" stroke-width="2"></path><path d="M32 0C41.15 57 -2.08 80.78 22.47 140C51.92 211.04 76.65 256.21 140 260.51C205.41 264.96 232.15 151.83 280 157.5C314.4 161.58 273.21 229.67 304.5 280C343.21 342.26 363.04 330.49 420 382.67C439.46 400.49 457.33 399.56 457.33 420C457.33 445.76 447.54 473.83 420 475.08C358.88 477.87 348.6 453.72 280 428.08C274.92 426.18 276.72 423.63 272.63 420C206.72 361.44 216 336.11 140 303.69C79.68 277.96 59.87 313.82 0 303.69C-10.13 301.98 0 291.85 0 280C0 210 0 210 0 140C0 70 -13.02 56.98 0 0C2.98 -13.02 29.91 -13 32 0" stroke="rgba(51, 121, 194, 1)" stroke-width="2"></path><path d="M796.08 140C817.71 116.83 817.89 117 840 94.29C886.05 47 880.95 34.65 932.4 0C950.95 -12.49 956.2 0 980 0C1050 0 1050 0 1120 0C1190 0 1190 0 1260 0C1278.53 0 1297.06 -3.61 1297.06 0C1297.06 3.89 1279.67 13.27 1260 15C1191.14 21.05 1176.02 -13.67 1120 15.56C1056.24 48.83 1061.18 72.63 1020.44 140C991.18 188.38 1004.16 195.73 980 247.06C971.21 265.73 972.06 269.7 954.55 280C902.06 310.87 899.46 323.8 840 329.41C772.18 335.8 769.72 318.06 700 304C647.22 293.36 595 294.72 595 280C595 264.85 655.87 274.99 700 244.26C756.41 204.99 747.71 191.82 796.08 140" stroke="rgba(51, 121, 194, 1)" stroke-width="2"></path><path d="M1540 40.38C1523.69 40.38 1487.5 11.26 1487.5 0C1487.5 -8.93 1525.16 -11.41 1540 0C1551.41 8.78 1549.94 40.38 1540 40.38" stroke="rgba(51, 121, 194, 1)" stroke-width="2"></path><path d="M1502.5 280C1502.5 258.72 1529.18 239.62 1540 239.62C1547.93 239.62 1540 259.81 1540 280C1540 305.61 1548.37 331.22 1540 331.22C1529.62 331.22 1502.5 304.52 1502.5 280" stroke="rgba(51, 121, 194, 1)" stroke-width="2"></path><path d="M1184.62 420C1184.62 397.98 1225.09 392.78 1260 392.78C1277.4 392.78 1289.25 403.03 1289.25 420C1289.25 454.33 1282.56 495.38 1260 495.38C1230.25 495.38 1184.62 449.28 1184.62 420" stroke="rgba(51, 121, 194, 1)" stroke-width="2"></path><path d="M0 541.94C5.19 541.94 17.78 554.69 17.78 560C17.78 563.72 4.41 564.48 0 560C-4.48 555.45 -3.7 541.94 0 541.94" stroke="rgba(51, 121, 194, 1)" stroke-width="2"></path><path d="M504.92 560C504.92 549.79 528.67 526.52 560 522.67C626.21 514.52 631.06 524.11 700 536C739.24 542.77 776.36 553.86 776.36 560C776.36 565.86 738.18 560 700 560C630 560 630 560 560 560C532.46 560 504.92 568.45 504.92 560" stroke="rgba(51, 121, 194, 1)" stroke-width="2"></path><path d="M1094.55 560C1094.55 548.98 1105.9 525 1120 525C1136.13 525 1155 549.75 1155 560C1155 567.25 1137.5 560 1120 560C1107.28 560 1094.55 566.48 1094.55 560" stroke="rgba(51, 121, 194, 1)" stroke-width="2"></path><path d="M1488 560C1488 546.62 1524.41 513.33 1540 513.33C1550.41 513.33 1552.3 548.96 1540 560C1526.3 572.3 1488 569.96 1488 560" stroke="rgba(51, 121, 194, 1)" stroke-width="2"></path></g><defs><mask id="SvgjsMask1238"><rect width="1440" height="560" fill="#ffffff"></rect></mask></defs></svg>